<?xml version="1.0" encoding="utf-8"?>
<svg xmlns="http://www.w3.org/2000/svg" height="450pt" version="1.1" viewBox="0 0 512 512" width="512pt">
<path d="M 0.00 0.00 L 512.00 0.00 L 512.00 512.00 L 0.00 512.00 L 0.00 0.00 Z" fill="transparent" opacity="1.00" stroke="transparent" stroke-width="0.25"/>
<path d="M 316.56 127.24 C 317.41 123.92 320.57 121.25 324.07 121.43 C 334.71 121.34 345.35 121.46 356.00 121.37 C 360.76 121.38 365.55 121.04 370.30 121.68 L 369.46 121.70 C 367.73 121.73 366.00 121.82 364.28 121.90 C 362.23 129.94 360.18 137.99 358.06 146.02 C 354.85 158.40 352.54 171.01 348.81 183.26 C 344.51 179.57 340.44 175.33 334.99 173.35 C 325.84 169.63 315.80 170.67 306.16 170.54 C 306.83 164.92 308.61 159.52 309.98 154.06 C 312.64 145.24 314.04 136.10 316.56 127.24 Z" fill="#2a546d" opacity="1.00" stroke="#2a546d" stroke-width="0.25"/>
<path d="M 197.24 128.04 C 198.13 124.52 201.29 121.70 204.98 121.60 C 212.98 121.33 220.99 121.59 228.99 121.45 C 233.07 121.51 237.25 121.07 241.21 122.27 C 239.14 122.43 237.08 122.69 235.03 122.93 C 232.53 133.60 228.83 144.02 227.45 154.92 C 214.67 158.22 202.48 164.16 189.12 164.90 C 189.32 161.17 190.02 157.49 191.04 153.90 C 193.37 145.34 194.75 136.55 197.24 128.04 Z" fill="#2b546d" opacity="1.00" stroke="#2b546d" stroke-width="0.25"/>
<path d="M 364.28 121.90 C 366.00 121.82 367.73 121.73 369.46 121.70 C 374.02 123.82 372.75 129.18 371.72 133.04 C 368.46 145.69 365.49 158.42 361.93 171.00 C 359.80 178.57 358.59 186.42 355.72 193.77 C 355.44 193.68 354.88 193.50 354.60 193.40 C 352.97 189.86 351.34 186.28 348.81 183.26 C 352.54 171.01 354.85 158.40 358.06 146.02 C 360.18 137.99 362.23 129.94 364.28 121.90 Z" fill="#102e3f" opacity="1.00" stroke="#102e3f" stroke-width="0.25"/>
<path d="M 235.03 122.93 C 237.08 122.69 239.14 122.43 241.21 122.27 C 245.91 123.34 249.32 127.11 252.16 130.78 C 257.57 138.04 262.92 145.34 268.38 152.56 C 254.70 152.33 240.92 152.12 227.45 154.92 C 228.83 144.02 232.53 133.60 235.03 122.93 Z" fill="#0f2e3f" opacity="1.00" stroke="#0f2e3f" stroke-width="0.25"/>
<path d="M 234.13 162.26 C 243.84 160.60 253.86 159.55 263.60 161.63 C 269.73 162.38 275.34 165.20 280.29 168.79 C 285.11 172.33 290.99 174.17 295.80 177.65 C 298.74 182.77 301.55 188.02 303.53 193.60 C 305.45 198.89 307.51 204.39 311.56 208.46 C 313.44 210.45 316.27 210.96 318.88 211.22 C 324.58 211.75 330.31 211.29 336.01 210.89 C 335.95 210.30 335.82 209.13 335.76 208.54 C 331.33 207.37 326.84 205.80 323.54 202.48 C 316.62 195.87 310.98 188.02 305.79 180.02 C 310.59 179.83 315.38 179.60 320.18 179.43 C 326.53 179.43 333.38 180.54 338.57 184.44 C 342.47 189.41 346.52 195.33 345.72 201.98 C 345.49 207.01 341.04 211.57 335.93 211.58 C 316.62 211.79 297.31 211.76 277.99 211.77 C 270.97 212.34 263.92 212.36 256.87 212.31 L 256.40 211.62 C 253.83 207.89 251.10 203.96 246.95 201.85 C 255.15 201.14 263.39 201.27 271.62 201.22 C 271.65 200.53 271.72 199.14 271.75 198.45 C 266.64 198.35 261.44 199.03 256.42 197.79 C 252.48 197.06 248.40 198.26 244.44 197.47 C 242.65 195.02 241.00 192.47 239.30 189.94 C 241.94 189.71 244.58 189.47 247.24 189.36 C 259.72 188.76 272.21 188.64 284.71 188.54 C 284.65 187.84 284.55 186.45 284.50 185.76 C 267.69 185.21 250.86 185.83 234.05 185.41 C 232.46 182.66 230.86 179.92 229.21 177.21 C 232.91 176.93 236.60 176.55 240.23 175.74 C 240.64 175.65 241.48 175.48 241.90 175.39 C 241.76 174.39 241.59 173.40 241.38 172.42 L 241.17 171.83 C 240.22 171.28 239.24 170.77 238.28 170.26 C 236.89 167.59 235.54 164.91 234.13 162.26 Z" fill="#0f2e3f" opacity="1.00" stroke="#0f2e3f" stroke-width="0.25"/>
<path d="M 204.78 171.20 C 214.45 167.88 224.25 164.89 234.13 162.26 C 235.54 164.91 236.89 167.59 238.28 170.26 C 239.24 170.77 240.22 171.28 241.17 171.83 L 241.38 172.42 C 230.92 172.26 220.46 172.37 210.00 172.43 C 208.16 172.56 206.46 171.82 204.78 171.20 Z" fill="#2e4e63" opacity="1.00" stroke="#2e4e63" stroke-width="0.25"/>
<path d="M 163.00 176.77 C 184.67 176.92 206.33 176.25 228.00 176.23 C 232.08 176.27 236.15 175.96 240.23 175.74 C 236.60 176.55 232.91 176.93 229.21 177.21 C 230.86 179.92 232.46 182.66 234.05 185.41 C 221.36 185.28 208.68 185.35 196.00 185.33 C 191.80 185.29 187.55 185.59 183.38 184.88 C 173.73 182.06 163.51 184.61 153.67 183.27 C 151.23 182.82 150.44 179.06 152.75 177.95 C 155.98 176.69 159.58 176.86 163.00 176.77 Z" fill="#31546a" opacity="1.00" stroke="#31546a" stroke-width="0.25"/>
<path d="M 295.80 177.65 C 303.87 179.08 312.11 178.06 320.18 179.43 C 315.38 179.60 310.59 179.83 305.79 180.02 C 310.98 188.02 316.62 195.87 323.54 202.48 C 326.84 205.80 331.33 207.37 335.76 208.54 C 335.82 209.13 335.95 210.30 336.01 210.89 C 330.31 211.29 324.58 211.75 318.88 211.22 C 316.27 210.96 313.44 210.45 311.56 208.46 C 307.51 204.39 305.45 198.89 303.53 193.60 C 301.55 188.02 298.74 182.77 295.80 177.65 Z" fill="#28495e" opacity="1.00" stroke="#28495e" stroke-width="0.25"/>
<path d="M 183.38 184.88 C 187.55 185.59 191.80 185.29 196.00 185.33 C 208.68 185.35 221.36 185.28 234.05 185.41 C 250.86 185.83 267.69 185.21 284.50 185.76 C 284.55 186.45 284.65 187.84 284.71 188.54 C 272.21 188.64 259.72 188.76 247.24 189.36 C 225.95 189.47 204.66 189.32 183.38 189.51 C 183.37 187.97 183.38 186.42 183.38 184.88 Z" fill="#f0f7fc" opacity="1.00" stroke="#f0f7fc" stroke-width="0.25"/>
<path d="M 179.92 191.24 C 181.05 190.63 182.09 189.76 183.38 189.51 C 204.66 189.32 225.95 189.47 247.24 189.36 C 244.58 189.47 241.94 189.71 239.30 189.94 C 241.00 192.47 242.65 195.02 244.44 197.47 C 225.30 197.61 206.15 197.50 187.00 197.56 C 183.10 197.51 178.93 198.18 175.40 196.07 C 175.87 195.90 176.80 195.54 177.27 195.36 C 160.79 194.48 144.22 196.30 127.77 194.56 C 142.15 192.73 156.66 194.21 171.10 194.08 C 174.29 194.15 177.29 192.94 179.92 191.24 Z" fill="#2e546c" opacity="1.00" stroke="#2e546c" stroke-width="0.25"/>
<path d="M 123.45 191.58 C 142.27 191.37 161.10 191.54 179.92 191.24 C 177.29 192.94 174.29 194.15 171.10 194.08 C 156.66 194.21 142.15 192.73 127.77 194.56 C 144.22 196.30 160.79 194.48 177.27 195.36 C 176.80 195.54 175.87 195.90 175.40 196.07 C 172.99 196.67 170.46 196.31 168.00 196.37 C 153.12 196.10 138.23 196.63 123.36 196.22 C 123.39 194.67 123.42 193.13 123.45 191.58 Z" fill="#426074" opacity="1.00" stroke="#426074" stroke-width="0.25"/>
<path d="M 176.92 197.96 C 203.42 198.19 229.93 198.43 256.42 197.79 C 261.44 199.03 266.64 198.35 271.75 198.45 C 271.72 199.14 271.65 200.53 271.62 201.22 C 263.39 201.27 255.15 201.14 246.95 201.85 C 238.01 202.94 228.98 202.21 220.00 202.41 C 206.00 202.18 191.97 202.86 178.00 202.15 C 177.58 201.98 176.76 201.64 176.34 201.47 C 177.59 201.01 178.84 200.57 180.10 200.15 C 179.04 199.42 177.97 198.69 176.92 197.96 Z" fill="#f2f6fa" opacity="1.00" stroke="#f2f6fa" stroke-width="0.25"/>
<path d="M 178.00 202.15 C 191.97 202.86 206.00 202.18 220.00 202.41 C 228.98 202.21 238.01 202.94 246.95 201.85 C 251.10 203.96 253.83 207.89 256.40 211.62 C 221.90 211.76 187.41 211.30 152.91 211.41 C 150.71 211.58 148.91 210.13 147.07 209.16 C 148.01 207.65 148.86 206.07 150.07 204.77 C 158.19 204.12 166.38 204.88 174.51 204.40 C 175.96 204.30 176.84 202.87 178.00 202.15 Z" fill="#36596f" opacity="1.00" stroke="#36596f" stroke-width="0.25"/>
<path d="M 332.05 221.39 C 338.10 220.71 344.24 219.35 349.64 216.42 C 345.22 228.46 343.68 241.33 339.69 253.51 C 338.55 256.56 335.41 259.00 332.05 258.66 C 319.68 258.61 307.29 258.83 294.92 258.64 C 291.31 258.66 289.07 255.30 287.28 252.61 C 280.53 241.94 272.86 231.89 265.91 221.36 C 277.27 221.07 288.67 221.82 300.00 220.74 C 310.66 221.50 321.36 221.36 332.05 221.39 Z" fill="#102e40" opacity="1.00" stroke="#102e40" stroke-width="0.25"/>
<path d="M 167.54 244.89 C 169.56 236.79 171.76 228.73 173.61 220.59 C 192.33 220.78 211.05 220.55 229.77 220.66 C 227.70 229.99 225.01 239.18 222.62 248.43 C 221.45 252.69 219.23 258.28 214.08 258.51 C 199.70 258.64 185.32 258.58 170.94 258.64 C 168.38 259.01 166.57 257.02 165.53 254.94 C 165.26 251.46 166.78 248.21 167.54 244.89 Z" fill="#29546c" opacity="1.00" stroke="#29546c" stroke-width="0.25"/>
<path d="M 23.68 293.27 C 27.30 293.72 32.19 291.75 34.64 295.36 C 41.91 304.76 49.21 314.15 56.23 323.75 C 58.47 326.96 60.67 330.23 63.27 333.17 C 63.71 319.91 63.12 306.63 63.79 293.38 C 67.06 292.78 70.38 292.62 73.70 292.66 C 73.74 311.99 73.76 331.33 73.73 350.66 C 70.25 350.44 65.63 352.07 63.28 348.64 C 56.33 339.91 49.78 330.86 42.96 322.03 C 39.95 318.21 37.49 313.90 33.71 310.76 C 33.28 324.05 33.71 337.35 33.50 350.65 C 30.24 350.71 26.98 350.72 23.72 350.72 C 23.46 331.58 23.36 312.42 23.68 293.27 Z" fill="#2f546b" opacity="1.00" stroke="#2f546b" stroke-width="0.25"/>
<path d="M 87.50 293.99 C 90.44 292.71 93.87 293.52 97.01 293.26 C 109.13 292.39 121.32 292.41 133.46 292.66 C 133.50 295.91 133.51 299.16 133.39 302.42 C 121.43 303.01 109.45 302.42 97.48 302.66 C 97.35 307.30 97.34 311.94 97.36 316.58 C 100.91 316.68 104.44 317.21 108.00 317.12 C 114.13 316.57 120.26 317.49 126.40 317.46 C 126.55 320.49 126.54 323.53 126.40 326.57 C 116.73 327.00 106.99 326.03 97.38 327.45 C 97.36 331.92 97.36 336.39 97.42 340.86 C 109.35 341.82 121.35 340.89 133.30 341.52 C 133.45 344.57 133.57 347.61 133.60 350.66 C 131.75 350.89 129.91 351.23 128.04 351.20 C 114.61 350.19 101.12 351.05 87.66 350.67 C 87.01 336.46 87.50 322.22 87.32 308.00 C 87.38 303.33 87.11 298.65 87.50 293.99 Z" fill="#2e536a" opacity="1.00" stroke="#2e536a" stroke-width="0.25"/>
<path d="M 140.86 293.62 C 144.16 292.66 147.60 292.49 151.02 292.60 C 156.35 299.08 161.08 306.08 166.81 312.21 C 170.24 306.55 174.05 301.13 177.78 295.68 C 180.25 291.28 186.09 292.70 190.22 292.87 C 191.37 294.31 189.79 295.89 189.16 297.17 C 184.31 304.32 179.31 311.38 174.47 318.54 C 173.64 319.88 172.34 321.77 173.81 323.15 C 178.55 329.41 183.30 335.66 188.04 341.92 C 190.07 344.57 192.13 347.27 193.37 350.41 C 189.98 350.94 186.53 351.59 183.09 351.12 C 180.34 349.49 178.93 346.43 177.05 343.97 C 173.64 339.28 170.58 334.32 166.92 329.83 C 165.16 330.22 164.26 331.87 163.23 333.17 C 160.04 337.65 156.82 342.11 153.86 346.74 C 152.70 348.32 151.73 350.24 149.86 351.10 C 146.48 351.58 143.08 350.84 139.72 350.47 C 140.30 348.04 141.10 345.61 142.72 343.66 C 147.70 337.31 152.58 330.88 157.18 324.25 C 158.11 322.86 159.30 321.13 158.43 319.43 C 153.34 310.31 145.12 303.21 140.86 293.62 Z" fill="#2d526a" opacity="1.00" stroke="#2d526a" stroke-width="0.25"/>
<path d="M 219.26 302.23 C 220.78 299.03 222.07 295.67 224.17 292.79 C 227.06 292.30 230.05 292.35 232.96 292.70 C 235.57 295.12 236.57 298.67 238.17 301.74 C 243.49 313.64 248.80 325.56 254.68 337.21 C 256.87 341.52 259.98 345.68 259.88 350.75 C 256.46 351.56 252.93 351.29 249.52 350.60 C 242.70 335.47 236.23 320.19 229.75 304.92 C 227.08 307.95 225.85 311.84 224.35 315.51 C 221.81 322.04 218.76 328.35 215.94 334.77 C 213.44 340.23 211.05 345.77 207.73 350.80 C 204.50 350.74 201.25 350.90 198.04 350.44 C 198.61 344.83 202.02 340.19 204.23 335.16 C 209.19 324.16 214.18 313.17 219.26 302.23 Z" fill="#2d536a" opacity="1.00" stroke="#2d536a" stroke-width="0.25"/>
<path d="M 267.54 293.36 C 272.31 292.42 277.18 292.79 282.00 292.73 C 288.75 292.72 295.61 292.45 302.24 293.96 C 308.93 296.21 315.11 301.76 316.18 309.01 C 316.87 313.94 314.77 318.93 311.62 322.64 C 308.52 326.31 303.97 328.17 299.72 330.14 C 305.29 337.16 313.25 342.35 317.38 350.45 C 312.37 350.94 305.31 353.15 302.16 347.79 C 296.34 339.37 288.49 332.53 283.04 323.85 C 283.58 323.34 284.66 322.33 285.20 321.82 C 290.77 320.84 297.26 322.98 302.11 319.20 C 308.46 314.70 305.61 301.83 297.06 302.50 C 290.26 302.52 283.46 302.67 276.67 302.65 C 276.59 318.61 276.40 334.57 276.72 350.53 C 273.61 350.59 270.51 350.66 267.40 350.72 C 266.22 342.53 266.82 334.24 266.72 326.01 C 266.99 315.13 266.01 304.18 267.54 293.36 Z" fill="#2d5269" opacity="1.00" stroke="#2d5269" stroke-width="0.25"/>
<path d="M 325.48 293.46 C 330.33 293.43 335.18 293.35 340.00 292.76 C 350.22 292.50 360.44 292.74 370.67 292.62 C 370.76 295.92 370.79 299.23 370.70 302.54 C 359.02 302.94 347.33 302.66 335.64 302.71 C 335.52 307.39 335.46 312.08 335.59 316.77 C 345.25 317.01 354.99 316.07 364.60 317.35 C 364.68 320.42 364.66 323.50 364.56 326.58 C 354.93 326.84 345.29 326.68 335.66 326.78 C 335.44 331.57 335.50 336.40 336.16 341.17 C 347.83 341.46 359.50 341.09 371.17 341.51 C 371.17 344.57 372.12 347.97 370.83 350.82 C 368.00 351.78 364.91 351.14 362.00 351.01 C 353.66 350.07 345.33 351.52 336.99 351.24 C 333.21 351.18 329.45 350.72 325.67 350.54 C 325.48 331.51 325.53 312.49 325.48 293.46 Z" fill="#2d536b" opacity="1.00" stroke="#2d536b" stroke-width="0.25"/>
<path d="M 382.53 292.83 C 385.35 292.64 388.18 292.43 391.00 292.66 C 393.03 293.62 394.06 295.87 395.42 297.57 C 399.81 304.39 405.12 310.54 409.91 317.08 C 413.95 322.54 418.00 328.00 422.47 333.12 C 422.75 320.06 422.47 306.98 422.66 293.92 C 425.31 291.74 429.05 293.01 432.19 292.80 C 432.41 306.86 432.23 320.93 432.39 335.00 C 432.35 340.16 432.67 345.35 431.85 350.47 C 428.70 350.60 425.56 350.66 422.42 350.57 C 417.11 343.23 411.88 335.83 406.25 328.74 C 401.35 322.63 397.30 315.84 391.78 310.24 C 391.12 323.71 391.77 337.20 391.64 350.68 C 388.34 350.74 385.05 350.75 381.76 350.65 C 381.59 346.75 381.76 342.86 382.20 339.00 C 382.73 323.61 382.15 308.21 382.53 292.83 Z" fill="#2d536a" opacity="1.00" stroke="#2d536a" stroke-width="0.25"/>
<path d="M 440.64 293.95 C 442.22 292.08 444.84 292.78 446.98 292.60 C 460.42 292.78 473.87 292.45 487.30 292.81 C 487.83 296.07 487.64 299.38 487.49 302.66 C 481.66 302.91 475.82 302.47 469.99 302.76 C 469.66 303.06 469.01 303.67 468.69 303.98 C 468.31 308.67 469.42 313.31 469.33 318.00 C 469.32 327.34 469.23 336.68 469.31 346.02 C 469.05 347.50 469.87 349.84 468.11 350.59 C 465.16 350.88 462.20 350.67 459.25 350.54 C 459.31 334.61 459.26 318.67 459.32 302.74 C 453.11 302.72 446.90 302.80 440.69 302.72 C 440.60 299.80 440.42 296.87 440.64 293.95 Z" fill="#2f566d" opacity="1.00" stroke="#2f566d" stroke-width="0.25"/>
<path d="M 225.59 334.63 C 229.66 331.71 236.86 335.68 235.02 340.87 C 233.99 345.96 226.25 345.98 223.61 342.33 C 222.74 339.74 222.96 336.13 225.59 334.63 Z" fill="#30546a" opacity="1.00" stroke="#30546a" stroke-width="0.25"/>
<path d="M 95.56 372.98 C 102.65 370.65 110.25 371.95 117.57 371.74 C 117.58 372.45 117.60 373.88 117.62 374.60 C 114.95 374.58 112.29 374.57 109.63 374.60 C 109.53 379.97 109.56 385.34 109.55 390.71 C 108.55 391.04 107.56 391.39 106.57 391.73 C 106.03 386.53 106.63 381.29 106.21 376.08 C 103.77 372.81 98.41 376.37 95.56 372.98 Z" fill="#334c59" opacity="1.00" stroke="#334c59" stroke-width="0.25"/>
<path d="M 125.24 372.25 C 131.41 372.31 137.58 372.32 143.75 372.24 C 143.71 372.83 143.64 374.01 143.61 374.61 C 138.50 374.71 133.39 374.60 128.29 374.73 C 128.26 376.39 128.23 378.07 128.20 379.75 C 132.66 379.72 137.13 379.55 141.55 380.22 C 141.57 380.81 141.59 382.00 141.61 382.59 C 137.19 382.57 132.78 382.51 128.37 382.57 C 128.32 384.45 128.28 386.33 128.27 388.22 C 133.94 388.43 139.66 387.88 145.30 388.72 C 144.18 390.00 142.79 391.28 140.96 391.18 C 135.76 391.34 130.55 391.19 125.34 391.28 C 125.26 384.93 125.32 378.59 125.24 372.25 Z" fill="#334a5b" opacity="1.00" stroke="#334a5b" stroke-width="0.25"/>
<path d="M 152.57 373.56 C 157.28 370.40 163.53 371.81 168.88 371.97 C 172.93 371.94 174.50 375.90 174.85 379.33 C 173.64 379.49 172.43 379.66 171.22 379.82 C 170.88 378.18 170.57 376.54 170.29 374.90 C 165.56 374.52 160.78 374.32 156.06 374.81 C 155.11 375.49 154.62 376.41 154.60 377.58 C 154.24 380.73 153.98 384.00 154.75 387.12 C 159.72 388.67 165.04 388.60 170.11 387.57 C 170.66 386.09 171.23 384.62 171.93 383.21 C 174.21 384.02 175.29 386.50 173.57 388.46 C 172.01 391.16 168.67 390.60 166.05 390.72 C 161.67 390.60 157.19 391.16 152.89 390.15 C 150.93 384.93 151.02 378.86 152.57 373.56 Z" fill="#324654" opacity="1.00" stroke="#324654" stroke-width="0.25"/>
<path d="M 182.69 374.99 C 182.89 373.33 183.36 369.83 185.50 372.16 C 186.00 374.64 186.10 377.18 186.32 379.71 C 191.38 379.55 196.56 380.30 201.55 379.23 C 201.59 376.92 201.48 374.62 201.45 372.32 C 202.51 372.30 203.58 372.28 204.65 372.27 C 204.55 378.09 204.90 383.92 204.55 389.74 C 204.78 391.48 202.77 391.28 201.65 391.78 C 201.44 388.59 201.42 385.40 201.39 382.21 C 196.42 382.26 191.44 382.29 186.47 382.38 C 186.14 385.69 187.43 389.95 183.86 391.88 C 182.11 386.42 182.67 380.63 182.69 374.99 Z" fill="#3f5461" opacity="1.00" stroke="#3f5461" stroke-width="0.25"/>
<path d="M 224.20 372.32 C 229.92 372.36 235.70 371.85 241.37 372.66 C 246.24 374.70 245.43 383.52 239.94 384.06 C 235.76 384.61 231.53 384.12 227.32 384.15 C 227.09 386.37 226.84 388.59 226.63 390.81 C 226.07 390.79 224.95 390.74 224.39 390.72 C 224.29 384.58 224.21 378.45 224.20 372.32 Z" fill="#364a57" opacity="1.00" stroke="#364a57" stroke-width="0.25"/>
<path d="M 249.42 371.71 C 256.53 371.56 263.64 371.54 270.75 371.65 C 270.72 372.38 270.67 373.84 270.64 374.57 C 267.94 374.82 264.84 373.87 262.42 375.17 C 261.47 380.69 263.50 386.61 261.17 391.86 C 260.59 391.38 259.42 390.43 258.83 389.95 C 258.53 384.86 258.78 379.75 258.58 374.66 C 255.51 374.59 252.45 374.59 249.38 374.62 C 249.39 373.89 249.41 372.44 249.42 371.71 Z" fill="#374f5e" opacity="1.00" stroke="#374f5e" stroke-width="0.25"/>
<path d="M 285.59 380.28 C 289.30 377.38 291.79 372.57 296.57 371.35 C 295.89 376.55 289.69 378.41 287.78 383.08 C 287.43 385.64 287.62 388.23 287.65 390.80 C 286.91 390.78 285.44 390.75 284.71 390.74 C 284.59 388.04 284.75 385.32 284.30 382.65 C 281.56 379.11 277.85 376.45 275.01 372.99 C 280.07 371.66 282.74 377.18 285.59 380.28 Z" fill="#354d5d" opacity="1.00" stroke="#354d5d" stroke-width="0.25"/>
<path d="M 316.44 371.91 C 317.73 371.74 319.02 371.59 320.31 371.44 C 320.48 376.84 320.43 382.24 320.41 387.64 C 325.37 387.68 330.35 387.34 335.28 387.90 C 336.23 389.68 335.77 390.71 333.89 390.99 C 328.15 391.70 322.32 391.33 316.56 391.14 C 316.49 384.73 316.46 378.32 316.44 371.91 Z" fill="#6b7c88" opacity="1.00" stroke="#6b7c88" stroke-width="0.25"/>
<path d="M 335.23 371.64 C 342.86 372.20 350.84 370.39 358.19 372.95 C 355.25 375.00 351.66 374.51 348.29 374.52 C 348.31 379.88 348.33 385.24 348.37 390.60 C 347.40 390.61 345.46 390.65 344.49 390.67 C 344.24 385.33 345.30 379.77 344.13 374.56 C 341.17 374.49 338.21 374.63 335.26 374.66 C 335.25 373.91 335.24 372.40 335.23 371.64 Z" fill="#324e59" opacity="1.00" stroke="#324e59" stroke-width="0.25"/>
<path d="M 363.53 372.53 C 369.61 372.15 375.73 372.04 381.81 372.47 C 383.80 372.42 385.31 374.32 385.46 376.18 C 385.78 379.71 385.66 383.27 385.37 386.80 C 385.33 388.66 383.72 390.46 381.81 390.46 C 375.73 390.98 369.60 390.77 363.51 390.56 C 363.15 384.56 363.17 378.53 363.53 372.53 Z" fill="#334b58" opacity="1.00" stroke="#334b58" stroke-width="0.25"/>
<path d="M 317.81 390.21 C 317.74 384.23 316.74 378.05 318.74 372.27 C 319.76 377.69 319.52 383.23 319.32 388.71 C 324.42 388.64 329.55 388.49 334.62 389.30 C 329.16 390.95 323.41 390.34 317.81 390.21 Z" fill="#314a59" opacity="1.00" stroke="#314a59" stroke-width="0.25"/>
<path d="M 227.36 374.54 C 231.53 374.65 235.72 374.29 239.87 374.84 C 241.98 376.18 242.17 379.64 240.44 381.36 C 235.86 382.22 231.18 381.61 226.58 381.43 C 226.63 379.11 226.88 376.81 227.36 374.54 Z" fill="#fbfefd" opacity="1.00" stroke="#fbfefd" stroke-width="0.25"/>
<path d="M 366.43 374.68 C 371.24 374.66 376.09 374.25 380.87 374.86 C 382.86 375.83 382.36 378.17 382.52 379.98 C 382.63 382.51 382.19 385.01 381.58 387.46 C 376.56 388.46 371.38 388.67 366.37 387.53 C 366.31 383.25 366.33 378.96 366.43 374.68 Z" fill="#fefefd" opacity="1.00" stroke="#fefefd" stroke-width="0.25"/>
<path d="M 393.03 387.43 C 394.56 387.41 396.10 387.39 397.65 387.39 C 397.14 388.88 397.10 391.52 394.91 391.40 C 392.70 392.03 393.42 388.68 393.03 387.43 Z" fill="#4b555e" opacity="1.00" stroke="#4b555e" stroke-width="0.25"/>
</svg>